# xmcd CD database file
#
# Track frame offsets:
#	150
#	26625
#	51767
#	79966
#	98371
#	113580
#	130959
#	155380
#	176170
#	204658
#
# Disc length: 3086 seconds
#
# Revision: 0
# Processed by: cddbd v1.5.1PL0 Copyright (c) Steve Scherf et al.
# Submitted via: CDex 1.51
#
DISCID=7c0c0c0a
DTITLE=Sérgio Carolino, Mário Delgado, Alexandre Frazão - Tuba Guitarra Bateria
DYEAR=2004
DGENRE=Jazz
TTITLE0=Pipa Baquígrafo
TTITLE1=3.4.7
TTITLE2=Inércia
TTITLE3=Pascoal Joins the Dark Force
TTITLE4=Lilli's Funk - Intro
TTITLE5=Lilli's Funk - Theme
TTITLE6=Brilliant Corners
TTITLE7=Só
TTITLE8=Un Poco Loco
TTITLE9=Black Dog
EXTD=YEAR: 2004
EXTT0=
EXTT1=
EXTT2=
EXTT3=
EXTT4=
EXTT5=
EXTT6=
EXTT7=
EXTT8=
EXTT9=
PLAYORDER=
